<?xml version="1.0" encoding="UTF-8" standalone="no"?><!DOCTYPE svg PUBLIC "-//W3C//DTD SVG 1.1//EN" "http://www.w3.org/Graphics/SVG/1.1/DTD/svg11.dtd"><svg width="100%" height="100%" viewBox="0 0 512 139" version="1.1" xmlns="http://www.w3.org/2000/svg" xmlns:xlink="http://www.w3.org/1999/xlink" xml:space="preserve" xmlns:serif="http://www.serif.com/" style="fill-rule:evenodd;clip-rule:evenodd;stroke-linejoin:round;stroke-miterlimit:1.41421;"><path d="M98.696,59.312l-43.061,0c-1.11,0 -2.012,0.903 -2.012,2.014l0,21.053c0,1.111 0.902,2.015 2.012,2.015l16.799,0l0,26.157c0,0 -3.772,1.286 -14.2,1.286c-12.303,0 -29.49,-4.496 -29.49,-42.288c0,-37.8 17.897,-42.773 34.698,-42.773c14.543,0 20.809,2.561 24.795,3.794c1.253,0.384 2.412,-0.863 2.412,-1.975l4.803,-20.342c0,-0.519 -0.176,-1.146 -0.769,-1.571c-1.619,-1.155 -11.496,-6.682 -36.449,-6.682c-28.747,0 -58.234,12.23 -58.234,71.023c0,58.795 33.761,67.556 62.209,67.556c23.556,0 37.845,-10.066 37.845,-10.066c0.589,-0.325 0.653,-1.148 0.653,-1.526l0,-65.661c0,-1.111 -0.9,-2.014 -2.011,-2.014Zm221.799,-51.953c0,-1.12 -0.887,-2.024 -1.998,-2.024l-24.246,0c-1.107,0 -2.008,0.904 -2.008,2.024c0,0.006 0.006,46.856 0.006,46.856l-37.792,0l0,-46.856c0,-1.12 -0.892,-2.024 -2.001,-2.024l-24.245,0c-1.103,0 -2.003,0.904 -2.003,2.024l0,126.872c0,1.119 0.9,2.031 2.003,2.031l24.245,0c1.109,0 2.001,-0.912 2.001,-2.031l0,-54.267l37.792,0c0,0 -0.066,54.263 -0.066,54.267c0,1.119 0.9,2.031 2.008,2.031l24.304,0c1.111,0 1.998,-0.912 2,-2.031l0,-126.872Zm-176.124,16.963c0,-8.731 -7,-15.786 -15.635,-15.786c-8.627,0 -15.632,7.055 -15.632,15.786c0,8.72 7.005,15.795 15.632,15.795c8.635,0 15.635,-7.075 15.635,-15.795Zm-1.924,83.212l0,-58.564c0,-1.112 -0.897,-2.021 -2.006,-2.021l-24.169,0c-1.109,0 -2.101,1.144 -2.101,2.256l0,83.905c0,2.466 1.537,3.199 3.526,3.199l21.775,0c2.389,0 2.975,-1.173 2.975,-3.239l0,-25.536Zm270.715,-60.585l-24.06,0c-1.104,0 -2.002,0.909 -2.002,2.028l0,62.21c0,0 -6.112,4.472 -14.788,4.472c-8.675,0 -10.977,-3.937 -10.977,-12.431l0,-54.251c0,-1.119 -0.897,-2.028 -2.001,-2.028l-24.419,0c-1.102,0 -2.005,0.909 -2.005,2.028l0,58.359c0,25.231 14.063,31.403 33.408,31.403c15.869,0 28.665,-8.767 28.665,-8.767c0,0 0.609,4.62 0.885,5.168c0.276,0.547 0.994,1.098 1.77,1.098l15.535,-0.068c1.102,0 2.005,-0.911 2.005,-2.025l-0.008,-85.168c0,-1.119 -0.899,-2.028 -2.008,-2.028Zm55.435,68.758c-8.345,-0.254 -14.006,-4.041 -14.006,-4.041l0,-40.178c0,0 5.585,-3.423 12.436,-4.035c8.664,-0.776 17.013,1.841 17.013,22.51c0,21.795 -3.768,26.096 -15.443,25.744Zm9.49,-71.483c-13.665,0 -22.96,6.097 -22.96,6.097l0,-42.962c0,-1.12 -0.895,-2.024 -2.001,-2.024l-24.314,0c-1.106,0 -2.004,0.904 -2.004,2.024l0,126.872c0,1.119 0.898,2.031 2.007,2.031l16.87,0c0.759,0 1.335,-0.392 1.759,-1.078c0.42,-0.682 1.025,-5.849 1.025,-5.849c0,0 9.942,9.421 28.763,9.421c22.096,0 34.768,-11.208 34.768,-50.315c0,-39.107 -20.238,-44.217 -33.913,-44.217Zm-265.858,2.507l-18.187,0c0,0 -0.028,-24.022 -0.028,-24.027c0,-0.909 -0.468,-1.364 -1.519,-1.364l-24.785,0c-0.964,0 -1.481,0.424 -1.481,1.35l0,24.83c0,0 -12.42,2.998 -13.26,3.24c-0.836,0.242 -1.452,1.014 -1.452,1.934l0,15.603c0,1.122 0.896,2.027 2.005,2.027l12.707,0l0,37.536c0,27.88 19.556,30.619 32.753,30.619c6.03,0 13.243,-1.937 14.434,-2.376c0.72,-0.265 1.138,-1.011 1.138,-1.82l0.021,-17.164c0,-1.119 -0.946,-2.025 -2.011,-2.025c-1.059,0 -3.771,0.431 -6.562,0.431c-8.933,0 -11.96,-4.154 -11.96,-9.53c0,-5.373 -0.001,-35.671 -0.001,-35.671l18.188,0c1.109,0 2.006,-0.905 2.006,-2.027l0,-19.544c0,-1.119 -0.897,-2.022 -2.006,-2.022Z" style="fill:#fff;fill-rule:nonzero;"/></svg>