<?xml version="1.0" encoding="UTF-8" standalone="no"?><!DOCTYPE svg PUBLIC "-//W3C//DTD SVG 1.1//EN" "http://www.w3.org/Graphics/SVG/1.1/DTD/svg11.dtd"><svg width="100%" height="100%" viewBox="0 0 300 107" version="1.1" xmlns="http://www.w3.org/2000/svg" xmlns:xlink="http://www.w3.org/1999/xlink" xml:space="preserve" xmlns:serif="http://www.serif.com/" style="fill-rule:evenodd;clip-rule:evenodd;stroke-linejoin:round;stroke-miterlimit:1.41421;"><path d="M176.764,57.669c-0.413,0.623 -0.676,1.05 -0.963,1.461c-2.683,3.838 -5.694,7.343 -9.799,9.768c-5.501,3.248 -11.464,4.588 -17.679,3.243c-3.189,-0.691 -6.156,-2.474 -9.159,-3.896c-0.692,-0.327 -1.071,-0.335 -1.686,0.028c-2.576,1.517 -5.082,3.219 -7.81,4.398c-4.841,2.094 -9.939,3.267 -15.208,1.875c-3.302,-0.873 -6.159,-2.732 -8.74,-4.967c-1.831,-1.585 -1.948,-1.584 -3.805,-0.058c-3.338,2.743 -7.192,4.512 -11.224,5.974c-5.003,1.814 -10.162,2.926 -15.438,3.448c-6.438,0.636 -12.408,-0.456 -16.764,-5.741c-3.492,-4.236 -4.426,-9.149 -2.29,-14.256c2.34,-5.592 5.046,-11.034 7.586,-16.541c1.325,-2.869 2.659,-5.736 3.944,-8.622c0.235,-0.53 0.33,-1.149 0.356,-1.734c0.051,-1.076 0.27,-2.255 -0.976,-2.903c-1.273,-0.659 -2.774,-0.54 -3.707,0.639c-1.17,1.475 -2.205,3.091 -3.075,4.761c-2.884,5.529 -5.674,11.108 -8.487,16.673c-2.11,4.172 -4.18,8.364 -6.309,12.526c-2.018,3.947 -5.81,5.451 -9.92,3.916c-1.384,-0.519 -2.252,-1.539 -2.485,-3.09c-0.33,-2.201 0.392,-4.172 1.174,-6.143c1.707,-4.31 3.437,-8.612 5.143,-12.923c0.914,-2.312 1.829,-4.625 2.687,-6.958c0.601,-1.631 0.781,-3.361 0.08,-4.963c-0.542,-1.236 -1.61,-2.128 -3.108,-1.996c-1.636,0.145 -2.924,0.999 -3.54,2.516c-2.17,5.351 -4.252,10.737 -6.387,16.102c-2.553,6.421 -5.064,12.86 -7.725,19.238c-0.984,2.357 -2.469,4.503 -4.968,5.512c-1.265,0.512 -2.698,0.829 -4.06,0.848c-4.25,0.056 -7.92,-1.362 -10.427,-4.965c-1.993,-2.865 -2.481,-6.054 -1.517,-9.427c0.891,-3.123 1.782,-6.246 2.716,-9.356c0.886,-2.948 1.827,-5.879 2.746,-8.818c0.857,-2.736 1.658,-5.493 2.587,-8.204c1.828,-5.337 3.303,-10.835 6.2,-15.731c1.982,-3.35 5.194,-5.161 8.876,-6.284c3.851,-1.173 7.131,0.303 10.418,1.937c1.246,0.618 2.477,1.279 3.756,1.817c1.785,0.749 3.413,0.275 4.855,-0.898c1.18,-0.959 2.37,-1.918 3.458,-2.979c2.717,-2.65 8.587,-3.141 11.456,-0.057c0.661,0.71 1.44,1.309 2.17,1.952c1.502,1.325 2.123,1.46 3.86,0.481c4.132,-2.33 8.412,-2.007 12.619,-0.514c2.441,0.868 3.902,2.939 4.835,5.392c1.373,3.612 0.797,7.099 -0.578,10.494c-2.529,6.245 -5.285,12.398 -7.753,18.666c-1.463,3.719 -2.699,7.543 -3.75,11.397c-0.428,1.571 -0.431,3.433 -0.032,5.011c0.605,2.389 2.795,3.171 5.011,3.452c3.374,0.427 6.684,-0.199 9.917,-1.092c2.76,-0.76 5.478,-1.697 8.174,-2.67c1.301,-0.47 2.514,-1.191 3.755,-1.821c1.063,-0.536 1.145,-1.322 0.585,-2.309c-1.144,-2.016 -2.346,-4.006 -3.354,-6.091c-2.13,-4.407 -3.882,-8.955 -3.415,-13.98c0.409,-4.399 1.999,-8.219 6.063,-10.535c5.999,-3.415 10.867,-2.472 15.276,2.631c3.814,4.414 5.071,9.727 3.434,15.419c-0.916,3.184 -2.226,6.26 -3.476,9.338c-0.346,0.853 -0.145,1.399 0.395,1.901c2.525,2.356 5.405,4.186 8.601,5.481c1.206,0.491 2.48,0.856 3.757,1.112c2.748,0.55 5.297,-0.103 7.586,-1.654c1.09,-0.737 1.113,-1.427 0.357,-2.456c-5.265,-7.172 -7.349,-15.155 -5.767,-23.927c0.593,-3.284 2.114,-6.386 5.643,-7.331c2.182,-0.586 4.648,-0.561 6.916,-0.272c3.687,0.468 7.026,1.938 9.291,5.108c2.717,3.804 3.411,7.967 2.242,12.514c-0.84,3.267 -2.556,6.045 -4.444,8.744c-0.749,1.07 -0.777,2.056 0.242,2.772c1.571,1.102 3.167,2.311 4.941,2.949c3.856,1.386 7.857,1.265 11.742,0.018c4.251,-1.368 7.238,-4.184 8.941,-8.363c2.035,-4.997 2.059,-10.232 1.956,-15.485c-0.082,-4.105 -0.225,-8.21 -0.347,-12.316c-0.043,-1.466 -0.28,-1.551 -1.679,-1.267c-3.687,0.744 -7.392,1.402 -11.092,2.078c-1.167,0.212 -2.344,0.355 -3.511,0.565c-2.541,0.457 -4.639,-0.586 -4.782,-3.556c-0.147,-2.993 -0.581,-5.971 -0.889,-8.957c-0.018,-0.168 -0.031,-0.337 -0.04,-0.507c-0.172,-3.514 0.679,-5.425 4.903,-5.272c4.362,0.16 8.724,0.303 13.081,0.532c2.143,0.111 2.896,-0.428 3.037,-2.552c0.109,-1.649 0.155,-3.299 0.258,-4.947c0.155,-2.472 0.719,-3.06 3.234,-2.962c1.503,0.06 3.014,0.321 4.484,0.652c2.07,0.464 3.155,1.92 3.299,3.977c0.116,1.685 0.067,3.384 0.04,5.075c-0.022,1.196 0.35,1.838 1.693,1.973c3.876,0.395 7.737,0.933 11.605,1.392c1.826,0.217 2.851,0.955 3.098,2.311c0.428,2.356 -0.081,3.969 -1.862,4.613c-2.489,0.899 -5.064,1.585 -7.638,2.218c-1.801,0.445 -3.667,0.635 -5.498,0.971c-1.229,0.225 -1.897,0.869 -1.886,2.25c0.046,6.816 -0.108,13.639 0.09,20.449c0.103,3.574 0.64,7.153 2.164,10.491c1.232,2.704 3.334,3.769 6.259,3.279c4.291,-0.719 8.225,-2.224 11.651,-4.936c1.901,-1.505 3.152,-3.346 3.247,-5.889c0.171,-4.653 0.401,-9.305 0.675,-13.952c0.079,-1.341 0.231,-2.731 0.678,-3.981c0.25,-0.694 1.161,-1.611 1.796,-1.63c3.505,-0.106 7.034,-0.141 10.523,0.162c2.194,0.189 3.702,2.24 3.586,4.56c-0.158,3.249 -0.578,6.487 -0.888,9.729c-0.382,4 -0.735,8.003 -1.16,11.998c-0.431,4.044 2.807,6.049 6.011,6.088c2.688,0.032 4.275,-0.97 5.417,-3.811c1.183,-2.94 1.885,-6.128 2.395,-9.272c0.722,-4.464 1.063,-8.989 1.596,-13.484c0.216,-1.836 1.364,-3.247 2.791,-3.553c1.649,-0.354 3.814,0.314 4.354,1.82c0.453,1.259 0.35,2.797 0.192,4.177c-0.583,5.119 -1.424,10.213 -1.904,15.342c-0.296,3.151 1.473,5.394 4.538,6.325c1.527,0.463 3.111,0.829 4.693,1.012c2.778,0.317 4.745,-1.708 5.325,-4.862c0.491,-2.651 0.557,-5.381 0.795,-8.078c0.28,-3.202 0.32,-6.446 0.868,-9.602c0.806,-4.673 3.828,-8.912 9.427,-10.271c3.361,-0.818 6.749,-0.915 10.105,-0.528c5.116,0.588 10.468,4.062 12.103,9.931c1.243,4.463 0.749,8.774 -0.713,13.067c-1.693,4.974 -4.787,8.851 -9.109,11.803c-0.399,0.272 -0.632,0.789 -0.939,1.193c0.543,0.239 1.091,0.695 1.631,0.685c5.165,-0.079 10.036,-1.259 14.496,-3.961c1.007,-0.609 2.103,-1.069 3.166,-1.574c0.976,-0.462 1.552,0.085 1.28,0.926c-0.453,1.41 -0.998,2.898 -1.901,4.037c-3.822,4.826 -9.036,7.139 -15.067,7.545c-2.557,0.171 -5.154,-0.17 -7.731,-0.312c-1.945,-0.109 -3.887,-0.278 -5.832,-0.409c-0.987,-0.065 -1.557,0.349 -1.804,1.368c-1.549,6.384 -2.368,12.875 -3.171,19.383c-0.507,4.098 -1.272,8.182 -2.254,12.192c-0.532,2.176 -2.233,3.676 -4.588,4.055c-1.407,0.226 -2.449,-0.382 -2.921,-1.693c-0.398,-1.104 -0.77,-2.264 -0.865,-3.422c-0.465,-5.715 -0.275,-11.415 0.485,-17.102c0.385,-2.894 0.643,-5.804 0.974,-8.703c0.234,-2.017 0.538,-4.027 0.728,-6.048c0.149,-1.633 -0.223,-2.018 -1.788,-2.329c-3.237,-0.645 -6.475,-1.279 -9.698,-1.992c-2.189,-0.486 -3.896,0.289 -5.38,1.796c-1.972,2.003 -4.15,3.744 -6.735,4.869c-3.123,1.361 -6.432,1.075 -9.644,0.567c-4.633,-0.737 -8.333,-3.17 -10.964,-7.074c-0.817,-1.212 -1.408,-2.578 -2.049,-3.899c-0.358,-0.74 -0.68,-1.027 -1.548,-0.585c-3.08,1.566 -6.147,3.173 -9.326,4.515c-3.541,1.494 -7.298,2.019 -11.06,0.971c-3.668,-1.023 -6.481,-3.381 -8.816,-6.329c-0.627,-0.79 -1.243,-1.585 -2.214,-2.827Zm105.637,-14.66c-0.041,-0.507 -0.041,-1.017 -0.125,-1.515c-0.469,-2.888 -3.372,-4.18 -5.71,-2.439c-1.058,0.787 -2.018,1.821 -2.74,2.926c-2.409,3.689 -3.497,7.914 -4.584,12.117c-0.274,1.055 -0.465,2.171 -0.443,3.255c0.041,2.018 1.229,2.612 2.922,1.521c3.513,-2.264 6.115,-5.403 8.311,-8.893c1.335,-2.121 2.428,-4.357 2.369,-6.972Zm-137.846,2.036c0.03,-2.006 -0.438,-3.862 -1.918,-5.305c-0.82,-0.799 -1.845,-1.147 -3.021,-0.781c-1.426,0.441 -2.197,1.498 -2.304,3.252c-0.207,3.398 1.254,6.318 2.757,9.192c0.775,1.48 1.51,1.433 2.511,0.065c1.399,-1.913 1.945,-4.087 1.975,-6.423Zm-34.682,-0.649c-0.372,-1.228 -0.618,-2.515 -1.149,-3.672c-0.678,-1.473 -2.426,-2.135 -3.972,-1.732c-1.636,0.429 -2.282,1.208 -2.113,3.221c0.149,1.751 0.552,3.499 1.019,5.2c0.343,1.251 0.87,2.477 1.494,3.616c0.839,1.535 1.715,1.55 2.54,0.064c1.138,-2.046 2.016,-4.195 2.181,-6.697Z" style="fill:#fff;fill-rule:nonzero;"/></svg>