<?xml version="1.0" encoding="UTF-8" standalone="no"?><!DOCTYPE svg PUBLIC "-//W3C//DTD SVG 1.1//EN" "http://www.w3.org/Graphics/SVG/1.1/DTD/svg11.dtd"><svg width="100%" height="100%" viewBox="0 0 1224 283" version="1.1" xmlns="http://www.w3.org/2000/svg" xmlns:xlink="http://www.w3.org/1999/xlink" xml:space="preserve" xmlns:serif="http://www.serif.com/" style="fill-rule:evenodd;clip-rule:evenodd;stroke-linejoin:round;stroke-miterlimit:1.41421;"><g><g><path d="M429.51,219.44l12.58,-29.34c13.77,10.18 31.74,15.57 49.7,15.57c13.17,0 21.56,-5.09 21.56,-12.87c-0.3,-21.56 -79.34,-4.79 -79.94,-58.98c-0.3,-27.54 24.25,-48.8 58.99,-48.8c20.66,0 41.32,5.09 55.99,16.77l-11.75,29.97c-13.5,-8.66 -30.17,-14.7 -46.03,-14.7c-10.78,0 -17.97,5.09 -17.97,11.68c0.3,21.26 79.94,9.58 80.84,61.38c0,28.14 -23.96,47.9 -58.09,47.9c-25.16,-0.02 -48.21,-6.01 -65.88,-18.58" style="fill:#fff;fill-rule:nonzero;"/><path d="M915.13,179.47c-6.27,11.08 -18.16,18.56 -31.8,18.56c-20.17,0 -36.53,-16.35 -36.53,-36.53c0,-20.18 16.35,-36.53 36.53,-36.53c13.64,0 25.53,7.48 31.8,18.56l34.96,-19.37c-13.09,-23.36 -38.08,-39.16 -66.76,-39.16c-42.25,0 -76.5,34.25 -76.5,76.5c0,42.25 34.25,76.5 76.5,76.5c28.69,0 53.67,-15.8 66.76,-39.16l-34.96,-19.37Z" style="fill:#fff;fill-rule:nonzero;"/><rect x="571.09" y="21.32" width="43.72" height="213.68" style="fill:#fff;"/><path d="M967.1,21.32l0,213.69l43.72,0l0,-64.03l51.8,64.03l55.87,0l-65.87,-76.06l61.08,-70.96l-53.48,0l-49.4,58.99l0,-125.66l-43.72,0Z" style="fill:#fff;fill-rule:nonzero;"/><path d="M744.42,179.76c-6.29,10.48 -19.46,18.26 -34.13,18.26c-20.17,0 -36.53,-16.35 -36.53,-36.53c0,-20.18 16.36,-36.53 36.53,-36.53c14.67,0 27.84,8.08 34.13,18.86l0,35.94Zm0,-91.77l0,17.37c-7.19,-11.98 -24.85,-20.36 -43.42,-20.36c-38.33,0 -68.57,33.83 -68.57,76.35c0,42.52 30.24,76.65 68.57,76.65c18.56,0 36.23,-8.38 43.41,-20.36l0,17.36l43.71,0l0,-147.01l-43.7,0Z" style="fill:#fff;fill-rule:nonzero;"/></g><g><path d="M159.51,179.5c0,14.91 -12.09,27 -27,27c-14.91,0 -27,-12.09 -27,-27c0,-14.91 12.09,-27 27,-27l27,0l0,27Z" style="fill:#e01e5a;fill-rule:nonzero;"/><path d="M173.01,179.5c0,-14.91 12.09,-27 27,-27c14.91,0 27,12.09 27,27l0,67.5c0,14.91 -12.09,27 -27,27c-14.91,0 -27,-12.09 -27,-27l0,-67.5Z" style="fill:#e01e5a;fill-rule:nonzero;"/></g><g><path d="M200.01,71.5c-14.91,0 -27,-12.09 -27,-27c0,-14.91 12.09,-27 27,-27c14.91,0 27,12.09 27,27l0,27l-27,0Z" style="fill:#36c5f0;fill-rule:nonzero;"/><path d="M200.01,85c14.91,0 27,12.09 27,27c0,14.91 -12.09,27 -27,27l-67.5,0c-14.91,0 -27,-12.09 -27,-27c0,-14.91 12.09,-27 27,-27l67.5,0Z" style="fill:#36c5f0;fill-rule:nonzero;"/></g><g><path d="M308.01,112c0,-14.91 12.09,-27 27,-27c14.91,0 27,12.09 27,27c0,14.91 -12.09,27 -27,27l-27,0l0,-27Z" style="fill:#2eb67d;fill-rule:nonzero;"/><path d="M294.51,112c0,14.91 -12.09,27 -27,27c-14.91,0 -27,-12.09 -27,-27l0,-67.5c0,-14.91 12.09,-27 27,-27c14.91,0 27,12.09 27,27l0,67.5Z" style="fill:#2eb67d;fill-rule:nonzero;"/></g><g><path d="M267.51,220c14.91,0 27,12.09 27,27c0,14.91 -12.09,27 -27,27c-14.91,0 -27,-12.09 -27,-27l0,-27l27,0Z" style="fill:#ecb22e;fill-rule:nonzero;"/><path d="M267.51,206.5c-14.91,0 -27,-12.09 -27,-27c0,-14.91 12.09,-27 27,-27l67.5,0c14.91,0 27,12.09 27,27c0,14.91 -12.09,27 -27,27l-67.5,0Z" style="fill:#ecb22e;fill-rule:nonzero;"/></g></g></svg>